<svg width="51" height="51" viewBox="0 0 51 51" fill="none" xmlns="http://www.w3.org/2000/svg">
<g clip-path="url(#clip0_12_2)">
<path d="M25.2524 10.0981C22.9421 11.723 20.3236 13.5647 18.9206 16.6117C16.4837 21.9277 23.9071 27.7262 24.2244 27.9705C24.2981 28.0272 24.3864 28.0555 24.4744 28.0555C24.5679 28.0555 24.6614 28.0236 24.7374 27.9599C24.8848 27.8367 24.9266 27.6273 24.8381 27.4568C24.8112 27.405 22.1466 22.2292 22.2456 18.5161C22.2806 17.2229 24.0905 15.7558 26.0065 14.2025C27.7614 12.7799 29.7507 11.1675 30.9146 9.28122C33.4697 5.12925 30.6298 1.04662 30.6008 1.0058C30.488 0.847398 30.2798 0.790074 30.1018 0.868101C29.9239 0.946617 29.8254 1.1389 29.866 1.32904C29.8718 1.35609 30.424 4.05591 28.8873 6.83746C28.2543 7.98688 26.8633 8.9652 25.2524 10.0981Z" fill="#DB380E"/>
<path d="M34.9862 11.9289C35.1491 11.8061 35.197 11.5822 35.0985 11.4035C34.9997 11.2248 34.7849 11.146 34.5941 11.2184C34.2016 11.3677 24.9831 14.9211 24.9831 19.2146C24.9831 22.1742 26.2474 23.7377 27.1705 24.8795C27.5326 25.3274 27.8452 25.7141 27.9482 26.0443C28.2383 26.9957 27.5512 28.7155 27.2622 29.2979C27.1789 29.4653 27.2197 29.6682 27.3614 29.7905C27.438 29.8566 27.5336 29.8902 27.6293 29.8902C27.7107 29.8902 27.7926 29.866 27.8633 29.8167C28.0218 29.7066 31.737 27.0798 31.0707 23.9151C30.8225 22.7121 30.2314 21.8332 29.7098 21.0576C28.9018 19.856 28.3182 18.988 29.2035 17.3849C30.2408 15.5149 34.9386 11.9644 34.9862 11.9289Z" fill="#DB380E"/>
<path d="M10.9901 29.9582C10.8321 30.4314 10.9067 30.9007 11.2056 31.3159C12.2049 32.7033 15.7447 33.4672 21.1732 33.4672C21.1735 33.4672 21.1737 33.4672 21.1739 33.4672C21.9095 33.4672 22.686 33.4528 23.4815 33.4242C32.1607 33.1136 35.3798 30.4097 35.5127 30.2947C35.6574 30.1694 35.696 29.9608 35.6061 29.7921C35.5161 29.6234 35.322 29.5387 35.1366 29.5898C32.0798 30.4243 26.3721 30.7206 22.4131 30.7206C17.9831 30.7206 15.727 30.4015 15.1747 30.1658C15.4581 29.7767 17.2061 29.0817 19.3723 28.6557C19.5793 28.615 19.7216 28.4238 19.7011 28.2139C19.6806 28.0039 19.5042 27.8438 19.2932 27.8438C18.0234 27.8438 11.6557 27.9457 10.9901 29.9582Z" fill="#73A1FB"/>
<path d="M40.0326 27.1733C38.2424 27.1733 36.5449 28.0706 36.4734 28.1086C36.3079 28.1973 36.2239 28.3871 36.2693 28.5695C36.3149 28.7517 36.4787 28.8797 36.6665 28.8799C36.7044 28.8799 40.485 28.9108 40.8274 31.0709C41.1307 32.9344 37.2503 35.9537 35.7295 36.96C35.5653 37.0687 35.5015 37.2787 35.5778 37.4603C35.6427 37.6149 35.7932 37.7116 35.9555 37.7116C35.9838 37.7116 36.0125 37.7086 36.0411 37.7026C36.402 37.6253 44.8698 35.7593 43.9745 30.8291C43.4283 27.8076 41.5293 27.1733 40.0326 27.1733Z" fill="#73A1FB"/>
<path d="M34.2254 36.3566C34.2549 36.1987 34.1892 36.038 34.0578 35.9457L32.0274 34.5235C31.9284 34.4542 31.8033 34.4324 31.687 34.4632C31.6659 34.4686 29.5426 35.0268 26.46 35.3691C25.2365 35.5063 23.8662 35.5787 22.4969 35.5787C19.415 35.5787 17.4 35.2166 17.1065 34.951C17.0677 34.8764 17.08 34.8425 17.0869 34.8236C17.1402 34.6754 17.426 34.4992 17.6101 34.4295C17.8136 34.3542 17.9232 34.1333 17.8599 33.9259C17.7969 33.7182 17.5829 33.596 17.3718 33.6467C15.335 34.1382 14.3391 34.8255 14.4116 35.6895C14.5403 37.2213 18.0884 38.0075 21.0879 38.2154C21.5192 38.2449 21.9857 38.2598 22.4741 38.2598C22.4744 38.2598 22.4746 38.2598 22.4749 38.2598C27.4626 38.2598 33.8568 36.6948 33.9206 36.6789C34.0768 36.6408 34.1958 36.5148 34.2254 36.3566Z" fill="#73A1FB"/>
<path d="M18.9182 39.6441C19.072 39.5441 19.1402 39.3539 19.0856 39.1788C19.0312 39.0037 18.8674 38.8887 18.6835 38.8912C18.4105 38.8984 16.0126 39.0066 15.8448 40.5332C15.794 40.9895 15.9247 41.4064 16.2333 41.7721C17.0943 42.7924 19.4183 43.3989 23.337 43.626C23.8006 43.6539 24.2715 43.6678 24.7368 43.6678C29.7188 43.6678 33.074 42.108 33.2146 42.0416C33.3508 41.9771 33.4406 41.8432 33.4487 41.6928C33.4567 41.5424 33.3816 41.3998 33.253 41.3211L30.6871 39.7547C30.5981 39.7004 30.4915 39.6825 30.3899 39.7033C30.3737 39.7067 28.7445 40.0446 26.2858 40.3784C25.8206 40.4416 25.238 40.4738 24.5544 40.4738C22.0983 40.4738 19.3665 40.0725 18.8425 39.8097C18.8349 39.7607 18.8446 39.6984 18.9182 39.6441Z" fill="#73A1FB"/>
<path d="M22.4149 48.3776C33.8265 48.368 39.9512 46.3386 41.1311 45.0615C41.5488 44.6098 41.5939 44.182 41.5585 43.9026C41.4708 43.2151 40.8445 42.7942 40.7735 42.7485C40.6022 42.6384 40.3723 42.6672 40.2387 42.8213C40.1054 42.9754 40.1023 43.2006 40.2361 43.3546C40.3081 43.4472 40.3497 43.6021 40.1392 43.8128C39.6675 44.2533 34.9102 45.5905 26.9892 45.9923C25.9041 46.0486 24.766 46.0773 23.6067 46.0775C16.5146 46.0775 11.3243 45.1061 10.6429 44.54C10.9055 44.1627 12.7415 43.5599 14.6939 43.2188C14.9139 43.1805 15.0626 42.9731 15.0285 42.7524C14.9944 42.5318 14.791 42.38 14.5686 42.4088C14.5135 42.4163 14.3266 42.4274 14.1102 42.4407C10.8887 42.6374 7.16595 43.0758 6.97171 44.7356C6.91272 45.2414 7.06302 45.7006 7.41859 46.1002C8.28861 47.0777 10.7893 48.3775 22.4145 48.3775C22.4147 48.3776 22.4147 48.3776 22.4149 48.3776Z" fill="#73A1FB"/>
<path d="M43.3725 45.4215C43.2112 45.3469 43.0206 45.3846 42.9003 45.5145C42.8836 45.5325 41.1678 47.3266 36.0092 48.3801C34.0343 48.7758 30.3273 48.9765 24.991 48.9765C19.6448 48.9765 14.5576 48.7661 14.5069 48.764C14.2944 48.7536 14.1127 48.9081 14.0838 49.1173C14.0547 49.3263 14.1895 49.5234 14.3947 49.5722C14.4476 49.5847 19.779 50.8337 27.0685 50.8337C30.5647 50.8337 33.9668 50.5498 37.1806 49.9895C43.1729 48.939 43.5925 45.9677 43.6074 45.8417C43.6283 45.6656 43.5336 45.4961 43.3725 45.4215Z" fill="#73A1FB"/>
</g>
<defs>
<clipPath id="clip0_12_2">
<rect width="50" height="50" fill="white" transform="translate(0.5 0.833496)"/>
</clipPath>
</defs>
</svg>
