<svg width="51" height="51" viewBox="0 0 51 51" fill="none" xmlns="http://www.w3.org/2000/svg">
<g clip-path="url(#clip0_9_93)">
<path d="M25.1666 50.8335C38.9738 50.8335 50.1666 39.6406 50.1666 25.8335C50.1666 12.0264 38.9738 0.833496 25.1666 0.833496C11.3595 0.833496 0.166641 12.0264 0.166641 25.8335C0.166641 39.6406 11.3595 50.8335 25.1666 50.8335Z" fill="#13AA52"/>
<path d="M31.8493 22.7788C30.2702 15.8096 26.5382 13.5181 26.1364 12.6426C25.6969 12.0249 25.2516 10.9263 25.2516 10.9263C25.2443 10.9077 25.2326 10.875 25.2189 10.8433C25.1735 11.4609 25.15 11.6992 24.5661 12.3223C23.6618 13.0293 19.0221 16.9224 18.6447 24.8403C18.2926 32.2251 23.9791 36.6255 24.7482 37.1865L24.8356 37.2485V37.2432C24.8405 37.2803 25.0797 39.001 25.2477 40.8242H25.8502C25.9916 39.5354 26.2035 38.2553 26.485 36.9897L26.5338 36.958C26.8778 36.7114 27.2058 36.4431 27.5158 36.1548L27.5509 36.123C29.1857 34.6128 32.1247 31.1196 32.0958 25.5503C32.0898 24.6213 32.0073 23.6943 31.8493 22.7788ZM25.1837 33.0171C25.1837 33.0171 25.1837 22.6597 25.5255 22.6616C25.7921 22.6616 26.1374 36.0215 26.1374 36.0215C25.6627 35.9644 25.1837 33.8228 25.1837 33.0171Z" fill="white"/>
</g>
<defs>
<clipPath id="clip0_9_93">
<rect width="50" height="50" fill="white" transform="translate(0.166641 0.833496)"/>
</clipPath>
</defs>
</svg>
