<svg width="51" height="51" viewBox="0 0 51 51" fill="none" xmlns="http://www.w3.org/2000/svg">
<path fill-rule="evenodd" clip-rule="evenodd" d="M20.5048 3.625C17.0718 3.625 14.2889 6.31958 14.2889 9.64352V13.8102H25.0471V14.9676H9.50748C6.07456 14.9676 3.29164 17.6622 3.29164 20.9861V30.0139C3.29164 33.3378 6.07456 36.0323 9.50748 36.0323H13.0935V30.9398C13.0935 27.6159 15.8765 24.9213 19.3095 24.9213H30.7848C33.6896 24.9213 36.0443 22.6413 36.0443 19.8288V9.64352C36.0443 6.31958 33.2615 3.625 29.8285 3.625H20.5048ZM19.0704 11.0324C20.2587 11.0324 21.222 10.0997 21.222 8.94908C21.222 7.79848 20.2587 6.86573 19.0704 6.86573C17.882 6.86573 16.9187 7.79848 16.9187 8.94908C16.9187 10.0997 17.882 11.0324 19.0704 11.0324Z" fill="url(#paint0_linear_9_90)"/>
<path fill-rule="evenodd" clip-rule="evenodd" d="M29.8282 47.3749C33.2612 47.3749 36.0441 44.6804 36.0441 41.3565V37.1897H25.2859V36.0324H40.8255C44.2585 36.0324 47.0413 33.3377 47.0413 30.0138V20.986C47.0413 17.6621 44.2585 14.9675 40.8255 14.9675H37.2394V20.0601C37.2394 23.3841 34.4565 26.0787 31.0237 26.0787H19.5482C16.6434 26.0787 14.2887 28.3587 14.2887 31.1712V41.3565C14.2887 44.6804 17.0716 47.3749 20.5044 47.3749H29.8282ZM31.2627 39.9676C30.0743 39.9676 29.111 40.9002 29.111 42.0508C29.111 43.2015 30.0743 44.1341 31.2627 44.1341C32.451 44.1341 33.4143 43.2015 33.4143 42.0508C33.4143 40.9002 32.451 39.9676 31.2627 39.9676Z" fill="url(#paint1_linear_9_90)"/>
<defs>
<linearGradient id="paint0_linear_9_90" x1="19.668" y1="3.625" x2="19.668" y2="36.0323" gradientUnits="userSpaceOnUse">
<stop stop-color="#327EBD"/>
<stop offset="1" stop-color="#1565A7"/>
</linearGradient>
<linearGradient id="paint1_linear_9_90" x1="30.6651" y1="14.9675" x2="30.6651" y2="47.3749" gradientUnits="userSpaceOnUse">
<stop stop-color="#FFDA4B"/>
<stop offset="1" stop-color="#F9C600"/>
</linearGradient>
</defs>
</svg>
