<svg width="51" height="31" viewBox="0 0 51 31" fill="none" xmlns="http://www.w3.org/2000/svg">
<g clip-path="url(#clip0_9_84)">
<mask id="mask0_9_84" style="mask-type:luminance" maskUnits="userSpaceOnUse" x="0" y="0" width="51" height="31">
<path d="M0.833344 0.281738H50.8333V30.7181H0.833344V0.281738Z" fill="white"/>
</mask>
<g mask="url(#mask0_9_84)">
<path fill-rule="evenodd" clip-rule="evenodd" d="M25.8333 0.281738C19.1667 0.281738 15 3.66356 13.3333 10.4272C15.8333 7.04537 18.75 5.77719 22.0833 6.62265C23.9852 7.10456 25.3445 8.50519 26.8491 10.0543C29.3 12.5784 32.137 15.4999 38.3333 15.4999C45 15.4999 49.1667 12.1181 50.8333 5.35447C48.3333 8.73628 45.4167 10.0045 42.0833 9.15901C40.1815 8.6771 38.8222 7.27647 37.3176 5.72741C34.8667 3.20325 32.0296 0.281738 25.8333 0.281738ZM13.3333 15.4999C6.66668 15.4999 2.50001 18.8817 0.833344 25.6454C3.33334 22.2636 6.25001 20.9954 9.58334 21.8408C11.4852 22.3237 12.8445 23.7234 14.3491 25.2724C16.8 27.7966 19.637 30.7181 25.8333 30.7181C32.5 30.7181 36.6667 27.3363 38.3333 20.5726C35.8333 23.9545 32.9167 25.2226 29.5833 24.3772C27.6815 23.8953 26.3222 22.4946 24.8176 20.9456C22.3667 18.4214 19.5296 15.4999 13.3333 15.4999Z" fill="#38BDF8"/>
</g>
</g>
<defs>
<clipPath id="clip0_9_84">
<rect width="50" height="31" fill="white" transform="translate(0.833344)"/>
</clipPath>
</defs>
</svg>
