<svg width="51" height="58" viewBox="0 0 51 58" fill="none" xmlns="http://www.w3.org/2000/svg">
<g clip-path="url(#clip0_12_15)">
<path d="M26.5187 1.02445C25.6704 0.547513 24.6629 0.547513 23.8146 1.02445L1.4922 13.9018C0.643842 14.3787 0.166641 15.2796 0.166641 16.2335V42.0412C0.166641 42.9951 0.696864 43.896 1.4922 44.3729L23.8146 57.2503C24.6629 57.7272 25.6704 57.7272 26.5187 57.2503L48.8411 44.3729C49.6894 43.896 50.1666 42.9951 50.1666 42.0412V16.2335C50.1666 15.2796 49.6364 14.3787 48.8411 13.9018L26.5187 1.02445Z" fill="url(#paint0_linear_12_15)"/>
<mask id="mask0_12_15" style="mask-type:luminance" maskUnits="userSpaceOnUse" x="0" y="0" width="51" height="58">
<path d="M26.5187 1.02445C25.6704 0.547513 24.6629 0.547513 23.8146 1.02445L1.4922 13.9018C0.643842 14.3787 0.166641 15.2796 0.166641 16.2335V42.0412C0.166641 42.9951 0.696864 43.896 1.4922 44.3729L23.8146 57.2503C24.6629 57.7272 25.6704 57.7272 26.5187 57.2503L48.8411 44.3729C49.6894 43.896 50.1666 42.9951 50.1666 42.0412V16.2335C50.1666 15.2796 49.6364 14.3787 48.8411 13.9018L26.5187 1.02445Z" fill="white"/>
</mask>
<g mask="url(#mask0_12_15)">
<path d="M48.8941 13.9018L26.4657 1.02449C26.2536 0.918501 25.9885 0.812515 25.7764 0.759521L0.643845 43.79C0.855934 44.055 1.12104 44.267 1.38616 44.4259L23.8146 57.3033C24.4508 57.6742 25.1932 57.7802 25.8824 57.5683L49.4774 14.4318C49.3183 14.2198 49.1062 14.0608 48.8941 13.9018Z" fill="url(#paint1_linear_12_15)"/>
</g>
<mask id="mask1_12_15" style="mask-type:luminance" maskUnits="userSpaceOnUse" x="0" y="0" width="51" height="58">
<path d="M26.5187 1.02445C25.6704 0.547513 24.6629 0.547513 23.8146 1.02445L1.4922 13.9018C0.643842 14.3787 0.166641 15.2796 0.166641 16.2335V42.0412C0.166641 42.9951 0.696864 43.896 1.4922 44.3729L23.8146 57.2503C24.6629 57.7272 25.6704 57.7272 26.5187 57.2503L48.8411 44.3729C49.6894 43.896 50.1666 42.9951 50.1666 42.0412V16.2335C50.1666 15.2796 49.6364 14.3787 48.8411 13.9018L26.5187 1.02445Z" fill="white"/>
</mask>
<g mask="url(#mask1_12_15)">
<path d="M48.9471 44.3728C49.5834 44.0019 50.0606 43.366 50.2727 42.6771L25.6704 0.706424C25.0341 0.600438 24.3448 0.653431 23.7616 1.02438L1.4922 13.8487L25.5113 57.6211C25.8294 57.5681 26.2006 57.4622 26.5187 57.3032L48.9471 44.3728Z" fill="url(#paint2_linear_12_15)"/>
</g>
</g>
<defs>
<linearGradient id="paint0_linear_12_15" x1="3409.59" y1="996.388" x2="964.657" y2="4840.05" gradientUnits="userSpaceOnUse">
<stop stop-color="#41873F"/>
<stop offset="0.3288" stop-color="#418B3D"/>
<stop offset="0.6352" stop-color="#419637"/>
<stop offset="0.9319" stop-color="#3FA92D"/>
<stop offset="1" stop-color="#3FAE2A"/>
</linearGradient>
<linearGradient id="paint1_linear_12_15" x1="2113.99" y1="3140.79" x2="8240.18" y2="-189.38" gradientUnits="userSpaceOnUse">
<stop offset="0.1376" stop-color="#41873F"/>
<stop offset="0.4032" stop-color="#54A044"/>
<stop offset="0.7136" stop-color="#66B848"/>
<stop offset="0.9081" stop-color="#6CC04A"/>
</linearGradient>
<linearGradient id="paint2_linear_12_15" x1="-212.596" y1="2848.65" x2="4952.67" y2="2848.65" gradientUnits="userSpaceOnUse">
<stop offset="0.0919165" stop-color="#6CC04A"/>
<stop offset="0.2864" stop-color="#66B848"/>
<stop offset="0.5968" stop-color="#54A044"/>
<stop offset="0.8624" stop-color="#41873F"/>
</linearGradient>
<clipPath id="clip0_12_15">
<rect width="50" height="57" fill="white" transform="translate(0.166641 0.666748)"/>
</clipPath>
</defs>
</svg>
