<svg width="52" height="46" viewBox="0 0 52 46" fill="none" xmlns="http://www.w3.org/2000/svg">
<g clip-path="url(#clip0_9_65)">
<path d="M25.8333 27.6748C28.3438 27.6748 30.379 25.6564 30.379 23.1667C30.379 20.677 28.3438 18.6587 25.8333 18.6587C23.3228 18.6587 21.2877 20.677 21.2877 23.1667C21.2877 25.6564 23.3228 27.6748 25.8333 27.6748Z" fill="#61DAFB"/>
<path d="M25.8334 32.4026C39.3043 32.4026 50.2247 28.2675 50.2247 23.1666C50.2247 18.0657 39.3043 13.9307 25.8334 13.9307C12.3624 13.9307 1.44205 18.0657 1.44205 23.1666C1.44205 28.2675 12.3624 32.4026 25.8334 32.4026Z" stroke="#61DAFB"/>
<path d="M17.768 27.7847C24.5035 39.3544 33.5746 46.6658 38.029 44.1154C42.4834 41.565 40.6342 30.1184 33.8987 18.5488C27.1632 6.97913 18.0921 -0.332361 13.6377 2.21808C9.18334 4.76852 11.0325 16.2151 17.768 27.7847Z" stroke="#61DAFB"/>
<path d="M17.768 18.5489C11.0325 30.1185 9.18334 41.5651 13.6377 44.1155C18.0921 46.666 27.1632 39.3545 33.8987 27.7848C40.6342 16.2152 42.4834 4.76864 38.029 2.2182C33.5746 -0.332243 24.5035 6.97925 17.768 18.5489Z" stroke="#61DAFB"/>
</g>
<defs>
<clipPath id="clip0_9_65">
<rect width="51" height="45" fill="white" transform="translate(0.333344 0.666748)"/>
</clipPath>
</defs>
</svg>
