<svg width="47" height="47" viewBox="0 0 47 47" fill="none" xmlns="http://www.w3.org/2000/svg">
<g clip-path="url(#clip0_9_76)">
<path d="M23.5 46.469C36.1531 46.469 46.4105 36.2116 46.4105 23.5585C46.4105 10.9053 36.1531 0.647949 23.5 0.647949C10.8469 0.647949 0.589508 10.9053 0.589508 23.5585C0.589508 36.2116 10.8469 46.469 23.5 46.469Z" fill="#1A171B"/>
<path d="M33.4707 9.11349C31.1465 9.19456 29.1177 10.4754 27.6077 12.2477C25.9356 14.1905 24.8232 16.4949 24.0217 18.8473C22.5878 17.6722 21.4818 16.1509 19.1816 15.4875C17.4037 14.9772 15.5363 15.1879 13.8191 16.4674C13.0056 17.0751 12.4452 17.9936 12.1787 18.8572C11.4886 21.101 12.9041 23.0981 13.547 23.815L14.9526 25.3214C15.2424 25.6168 15.9403 26.3873 15.5991 27.4919C15.2304 28.6932 13.7824 29.4707 12.2971 29.0125C11.6338 28.8102 10.6807 28.316 10.8943 27.6202C10.9824 27.3355 11.1862 27.1226 11.2954 26.8765C11.3955 26.6651 11.4435 26.5064 11.4738 26.4134C11.7452 25.5273 11.3744 24.3747 10.4255 24.0822C9.54013 23.8108 8.63428 24.0258 8.28322 25.1656C7.88493 26.4606 8.50457 28.8109 11.8241 29.8345C15.7133 31.0293 19.0032 28.9117 19.4699 26.1497C19.7639 24.4198 18.9828 23.1347 17.5518 21.4816L16.3858 20.1923C15.6794 19.4867 15.4369 18.284 16.168 17.3599C16.7848 16.5802 17.6631 16.2475 19.1019 16.6387C21.2019 17.209 22.1381 18.6661 23.7002 19.8412C23.0552 21.9568 22.6337 24.08 22.2523 25.9841L22.0197 27.4038C20.903 33.2605 20.0508 36.4764 17.8358 38.3226C17.3896 38.6398 16.7517 39.115 15.7901 39.1481C15.2861 39.1636 15.1232 38.8168 15.1162 38.6659C15.1042 38.312 15.4024 38.1499 15.6005 37.9906C15.8966 37.8292 16.3442 37.5613 16.3139 36.7034C16.2815 35.6897 15.4419 34.8106 14.228 34.8508C13.3186 34.8818 11.9327 35.7376 11.9849 37.304C12.0391 38.9218 13.547 40.1343 15.8204 40.0575C17.0357 40.0159 19.7498 39.521 22.4243 36.3417C25.5373 32.6972 26.4079 28.519 27.0628 25.461L27.7938 21.4238C28.1999 21.4725 28.6341 21.5049 29.1064 21.5162C32.9836 21.598 34.9229 19.5896 34.9518 18.129C34.9708 17.245 34.3716 16.3751 33.5327 16.3948C32.9321 16.4117 32.1778 16.8114 31.9967 17.6418C31.8197 18.4567 33.2303 19.192 32.1278 19.9061C31.3446 20.413 29.9403 20.7704 27.963 20.4799L28.3225 18.4927C29.0564 14.7241 29.9615 10.0884 33.3953 9.97563C33.6455 9.96294 34.5612 9.98691 34.5824 10.5925C34.5887 10.7948 34.5387 10.8462 34.3018 11.3094C34.0607 11.6703 33.9698 11.9777 33.9811 12.3308C34.0142 13.2931 34.7459 13.9254 35.804 13.8873C37.221 13.8415 37.6284 12.462 37.6051 11.7535C37.548 10.0891 35.7935 9.03736 33.4707 9.11349Z" fill="white"/>
</g>
<defs>
<clipPath id="clip0_9_76">
<rect width="46" height="46" fill="white" transform="translate(0.5 0.5)"/>
</clipPath>
</defs>
</svg>
